Pacifico-Final.ufo
<glyph name="parenleft" format="1">
  <advance width="398"/>
  <unicode hex="0028"/>
  <outline>
    <contour>
      <point x="355" y="-129" type="curve" smooth="yes"/>
      <point x="380" y="-129"/>
      <point x="431" y="-126"/>
      <point x="431" y="-96" type="curve" smooth="yes"/>
      <point x="431" y="-64"/>
      <point x="392" y="-72"/>
      <point x="354" y="-65" type="curve" smooth="yes"/>
      <point x="253" y="-48"/>
      <point x="215" y="35"/>
      <point x="215" y="147" type="curve" smooth="yes"/>
      <point x="215" y="296"/>
      <point x="290" y="470"/>
      <point x="430" y="572" type="curve" smooth="yes"/>
      <point x="463" y="596"/>
      <point x="480" y="617"/>
      <point x="480" y="634" type="curve" smooth="yes"/>
      <point x="480" y="647"/>
      <point x="472" y="655"/>
      <point x="456" y="655" type="curve" smooth="yes"/>
      <point x="449" y="655"/>
      <point x="440" y="653"/>
      <point x="430" y="649" type="curve" smooth="yes"/>
      <point x="238" y="562"/>
      <point x="128" y="342"/>
      <point x="128" y="140" type="curve" smooth="yes"/>
      <point x="128" y="-18"/>
      <point x="208" y="-129"/>
    </contour>
  </outline>
</glyph>
<glyph name="plus" format="1">
  <advance width="514"/>
  <unicode hex="002B"/>
  <outline>
    <contour>
      <point x="263" y="21" type="curve" smooth="yes"/>
      <point x="285" y="21"/>
      <point x="296" y="42"/>
      <point x="296" y="66" type="curve" smooth="yes"/>
      <point x="296" y="142" type="line"/>
      <point x="375" y="142" type="line" smooth="yes"/>
      <point x="397" y="142"/>
      <point x="415" y="157"/>
      <point x="415" y="180" type="curve" smooth="yes"/>
      <point x="415" y="197"/>
      <point x="401" y="208"/>
      <point x="381" y="208" type="curve" smooth="yes"/>
      <point x="296" y="208" type="line"/>
      <point x="296" y="292" type="line" smooth="yes"/>
      <point x="296" y="312"/>
      <point x="285" y="326"/>
      <point x="267" y="326" type="curve" smooth="yes"/>
      <point x="245" y="326"/>
      <point x="230" y="308"/>
      <point x="230" y="286" type="curve" smooth="yes"/>
      <point x="230" y="208" type="line"/>
      <point x="155" y="208" type="line" smooth="yes"/>
      <point x="131" y="208"/>
      <point x="109" y="197"/>
      <point x="109" y="175" type="curve" smooth="yes"/>
      <point x="109" y="152"/>
      <point x="130" y="142"/>
      <point x="153" y="142" type="curve" smooth="yes"/>
      <point x="230" y="142" type="line"/>
      <point x="230" y="64" type="line" smooth="yes"/>
      <point x="230" y="41"/>
      <point x="240" y="21"/>
    </contour>
  </outline>
</glyph>
<glyph name="zero" format="1">
  <advance width="417"/>
  <unicode hex="0030"/>
  <outline>
    <contour>
      <point x="326" y="295" type="curve" smooth="yes"/>
      <point x="326" y="180"/>
      <point x="300" y="62"/>
      <point x="216" y="62" type="curve" smooth="yes"/>
      <point x="152" y="62"/>
      <point x="132" y="110"/>
      <point x="132" y="191" type="curve" smooth="yes"/>
      <point x="132" y="325"/>
      <point x="171" y="422"/>
      <point x="248" y="422" type="curve" smooth="yes"/>
      <point x="310" y="422"/>
      <point x="326" y="369"/>
    </contour>
    <contour>
      <point x="44" y="188" type="curve" smooth="yes"/>
      <point x="44" y="79"/>
      <point x="94" y="-8"/>
      <point x="211" y="-8" type="curve" smooth="yes"/>
      <point x="337" y="-8"/>
      <point x="412" y="128"/>
      <point x="412" y="291" type="curve" smooth="yes"/>
      <point x="412" y="398"/>
      <point x="372" y="495"/>
      <point x="256" y="495" type="curve" smooth="yes"/>
      <point x="110" y="495"/>
      <point x="44" y="335"/>
    </contour>
  </outline>
</glyph>
<glyph name="eight" format="1">
  <advance width="417"/>
  <unicode hex="0038"/>
  <outline>
    <contour>
      <point x="395" y="407" type="curve" smooth="yes"/>
      <point x="395" y="476"/>
      <point x="327" y="504"/>
      <point x="260" y="504" type="curve" smooth="yes"/>
      <point x="177" y="504"/>
      <point x="113" y="451"/>
      <point x="113" y="370" type="curve" smooth="yes"/>
      <point x="113" y="322"/>
      <point x="152" y="287"/>
      <point x="185" y="265" type="curve"/>
      <point x="129" y="231"/>
      <point x="77" y="188"/>
      <point x="77" y="101" type="curve" smooth="yes"/>
      <point x="77" y="22"/>
      <point x="134" y="-13"/>
      <point x="219" y="-13" type="curve" smooth="yes"/>
      <point x="303" y="-13"/>
      <point x="368" y="33"/>
      <point x="368" y="110" type="curve" smooth="yes"/>
      <point x="368" y="179"/>
      <point x="321" y="220"/>
      <point x="280" y="251" type="curve"/>
      <point x="342" y="280"/>
      <point x="395" y="319"/>
    </contour>
    <contour>
      <point x="214" y="54" type="curve" smooth="yes"/>
      <point x="173" y="54"/>
      <point x="151" y="80"/>
      <point x="151" y="109" type="curve" smooth="yes"/>
      <point x="151" y="163"/>
      <point x="196" y="200"/>
      <point x="229" y="217" type="curve"/>
      <point x="245" y="199"/>
      <point x="284" y="157"/>
      <point x="284" y="123" type="curve" smooth="yes"/>
      <point x="284" y="87"/>
      <point x="259" y="54"/>
    </contour>
    <contour>
      <point x="241" y="298" type="curve"/>
      <point x="224" y="314"/>
      <point x="189" y="347"/>
      <point x="189" y="376" type="curve" smooth="yes"/>
      <point x="189" y="417"/>
      <point x="218" y="438"/>
      <point x="263" y="438" type="curve" smooth="yes"/>
      <point x="287" y="438"/>
      <point x="314" y="421"/>
      <point x="314" y="388" type="curve" smooth="yes"/>
      <point x="314" y="352"/>
      <point x="269" y="313"/>
    </contour>
  </outline>
</glyph>
<glyph name="greater" format="1">
  <advance width="404"/>
  <unicode hex="003E"/>
  <outline>
    <contour>
      <point x="91" y="36" type="curve" smooth="yes"/>
      <point x="132" y="36"/>
      <point x="169" y="58"/>
      <point x="202" y="72" type="curve" smooth="yes"/>
      <point x="274" y="102"/>
      <point x="388" y="116"/>
      <point x="388" y="214" type="curve" smooth="yes"/>
      <point x="388" y="271"/>
      <point x="325" y="276"/>
      <point x="286" y="295" type="curve" smooth="yes"/>
      <point x="232" y="320"/>
      <point x="158" y="371"/>
      <point x="85" y="371" type="curve" smooth="yes"/>
      <point x="58" y="371"/>
      <point x="47" y="342"/>
      <point x="47" y="315" type="curve" smooth="yes"/>
      <point x="47" y="296"/>
      <point x="59" y="289"/>
      <point x="74" y="284" type="curve" smooth="yes"/>
      <point x="321" y="209" type="line"/>
      <point x="86" y="121" type="line" smooth="yes"/>
      <point x="69" y="114"/>
      <point x="56" y="89"/>
      <point x="56" y="63" type="curve" smooth="yes"/>
      <point x="56" y="45"/>
      <point x="72" y="36"/>
    </contour>
  </outline>
</glyph>
<glyph name="question" format="1">
  <advance width="384"/>
  <unicode hex="003F"/>
  <outline>
    <contour>
      <point x="263" y="563" type="curve" smooth="yes"/>
      <point x="305" y="563"/>
      <point x="339" y="539"/>
      <point x="339" y="491" type="curve" smooth="yes"/>
      <point x="339" y="379"/>
      <point x="199" y="365"/>
      <point x="195" y="239" type="curve" smooth="yes"/>
      <point x="195" y="228"/>
      <point x="204" y="221"/>
      <point x="214" y="221" type="curve" smooth="yes"/>
      <point x="224" y="222"/>
      <point x="234" y="229"/>
      <point x="236" y="244" type="curve" smooth="yes"/>
      <point x="248" y="317"/>
      <point x="423" y="351"/>
      <point x="423" y="499" type="curve" smooth="yes"/>
      <point x="423" y="584"/>
      <point x="346" y="639"/>
      <point x="266" y="639" type="curve" smooth="yes"/>
      <point x="199" y="639"/>
      <point x="133" y="602"/>
      <point x="105" y="516" type="curve" smooth="yes"/>
      <point x="104" y="514"/>
      <point x="104" y="511"/>
      <point x="104" y="509" type="curve" smooth="yes"/>
      <point x="104" y="492"/>
      <point x="124" y="477"/>
      <point x="139" y="477" type="curve" smooth="yes"/>
      <point x="145" y="477"/>
      <point x="150" y="480"/>
      <point x="153" y="485" type="curve" smooth="yes"/>
      <point x="179" y="539"/>
      <point x="223" y="563"/>
    </contour>
    <contour>
      <point x="201" y="0" type="curve" smooth="yes"/>
      <point x="242" y="0"/>
      <point x="265" y="26"/>
      <point x="265" y="65" type="curve" smooth="yes"/>
      <point x="265" y="102"/>
      <point x="245" y="121"/>
      <point x="208" y="121" type="curve" smooth="yes"/>
      <point x="167" y="121"/>
      <point x="145" y="94"/>
      <point x="145" y="55" type="curve" smooth="yes"/>
      <point x="145" y="19"/>
      <point x="165" y="0"/>
    </contour>
  </outline>
</glyph>
<glyph name="at" format="1">
  <advance width="766"/>
  <unicode hex="0040"/>
  <outline>
    <contour>
      <point x="470" y="96" type="line" smooth="yes"/>
      <point x="470" y="46"/>
      <point x="499" y="26"/>
      <point x="544" y="26" type="curve" smooth="yes"/>
      <point x="638" y="26"/>
      <point x="727" y="140"/>
      <point x="727" y="294" type="curve" smooth="yes"/>
      <point x="727" y="454"/>
      <point x="629" y="543"/>
      <point x="462" y="543" type="curve" smooth="yes"/>
      <point x="250" y="543"/>
      <point x="37" y="360"/>
      <point x="37" y="123" type="curve" smooth="yes"/>
      <point x="37" y="-15"/>
      <point x="119" y="-141"/>
      <point x="333" y="-141" type="curve" smooth="yes"/>
      <point x="432" y="-141"/>
      <point x="539" y="-115"/>
      <point x="615" y="-71" type="curve" smooth="yes"/>
      <point x="628" y="-64"/>
      <point x="633" y="-52"/>
      <point x="633" y="-41" type="curve" smooth="yes"/>
      <point x="633" y="-25"/>
      <point x="622" y="-10"/>
      <point x="605" y="-10" type="curve" smooth="yes"/>
      <point x="600" y="-10"/>
      <point x="593" y="-11"/>
      <point x="587" y="-15" type="curve" smooth="yes"/>
      <point x="510" y="-60"/>
      <point x="424" y="-77"/>
      <point x="343" y="-77" type="curve" smooth="yes"/>
      <point x="166" y="-77"/>
      <point x="109" y="17"/>
      <point x="109" y="121" type="curve" smooth="yes"/>
      <point x="109" y="304"/>
      <point x="256" y="482"/>
      <point x="462" y="482" type="curve" smooth="yes"/>
      <point x="596" y="482"/>
      <point x="665" y="415"/>
      <point x="665" y="287" type="curve" smooth="yes"/>
      <point x="665" y="216"/>
      <point x="616" y="81"/>
      <point x="545" y="81" type="curve" smooth="yes"/>
      <point x="529" y="81"/>
      <point x="520" y="86"/>
      <point x="520" y="106" type="curve" smooth="yes"/>
      <point x="520" y="112"/>
      <point x="521" y="119"/>
      <point x="523" y="128" type="curve" smooth="yes"/>
      <point x="579" y="349" type="line" smooth="yes"/>
      <point x="581" y="358"/>
      <point x="583" y="367"/>
      <point x="583" y="374" type="curve" smooth="yes"/>
      <point x="583" y="396"/>
      <point x="571" y="405"/>
      <point x="548" y="405" type="curve" smooth="yes"/>
      <point x="545" y="405" type="line" smooth="yes"/>
      <point x="525" y="405" type="line"/>
      <point x="524" y="416"/>
      <point x="518" y="422"/>
      <point x="509" y="422" type="curve" smooth="yes"/>
      <point x="371" y="422"/>
      <point x="206" y="297"/>
      <point x="206" y="126" type="curve" smooth="yes"/>
      <point x="206" y="53"/>
      <point x="256" y="9"/>
      <point x="328" y="9" type="curve" smooth="yes"/>
      <point x="391" y="9"/>
      <point x="436" y="43"/>
      <point x="470" y="102" type="curve"/>
    </contour>
    <contour>
      <point x="464" y="195" type="line" smooth="yes"/>
      <point x="449" y="144"/>
      <point x="406" y="68"/>
      <point x="331" y="68" type="curve" smooth="yes"/>
      <point x="284" y="68"/>
      <point x="273" y="100"/>
      <point x="273" y="129" type="curve" smooth="yes"/>
      <point x="273" y="259"/>
      <point x="377" y="357"/>
      <point x="488" y="357" type="curve" smooth="yes"/>
      <point x="496" y="357"/>
      <point x="503" y="357"/>
      <point x="511" y="356" type="curve"/>
    </contour>
  </outline>
</glyph>
<glyph name="D" format="1">
  <advance width="607"/>
  <unicode hex="0044"/>
  <outline>
    <contour>
      <point x="342" y="671" type="move" name="top"/>
    </contour>
    <contour>
      <point x="208" y="-36" type="move" name="bot"/>
    </contour>
    <contour>
      <point x="159" y="51" type="curve" smooth="yes"/>
      <point x="159" y="180"/>
      <point x="217" y="436"/>
      <point x="278" y="515" type="curve"/>
      <point x="267" y="533"/>
      <point x="253" y="543"/>
      <point x="236" y="543" type="curve" smooth="yes"/>
      <point x="223" y="543"/>
      <point x="208" y="537"/>
      <point x="192" y="526" type="curve"/>
      <point x="121" y="424"/>
      <point x="72" y="175"/>
      <point x="69" y="5" type="curve" smooth="yes"/>
      <point x="68" y="-9"/>
      <point x="71" y="-14"/>
      <point x="82" y="-19" type="curve" smooth="yes"/>
      <point x="113" y="-33"/>
      <point x="154" y="-47"/>
      <point x="200" y="-47" type="curve" smooth="yes"/>
      <point x="399" y="-47"/>
      <point x="604" y="107"/>
      <point x="604" y="378" type="curve" smooth="yes"/>
      <point x="604" y="556"/>
      <point x="486" y="675"/>
      <point x="266" y="675" type="curve" smooth="yes"/>
      <point x="167" y="675"/>
      <point x="100" y="646"/>
      <point x="47" y="584" type="curve" smooth="yes"/>
      <point x="41" y="577"/>
      <point x="15" y="532"/>
      <point x="15" y="499" type="curve" smooth="yes"/>
      <point x="15" y="485"/>
      <point x="22" y="466"/>
      <point x="40" y="466" type="curve" smooth="yes"/>
      <point x="62" y="466"/>
      <point x="88" y="518"/>
      <point x="106" y="537" type="curve" smooth="yes"/>
      <point x="155" y="587"/>
      <point x="214" y="597"/>
      <point x="267" y="597" type="curve" smooth="yes"/>
      <point x="437" y="597"/>
      <point x="520" y="490"/>
      <point x="520" y="368" type="curve" smooth="yes"/>
      <point x="520" y="189"/>
      <point x="375" y="17"/>
      <point x="190" y="17" type="curve" smooth="yes"/>
      <point x="163" y="17"/>
      <point x="159" y="28"/>
    </contour>
  </outline>
</glyph>
<glyph name="K" format="1">
  <advance width="646"/>
  <unicode hex="004B"/>
  <outline>
    <contour>
      <point x="512" y="671" type="move" name="top"/>
    </contour>
    <contour>
      <point x="300" y="-138" type="move" name="bot"/>
    </contour>
    <contour>
      <point x="733" y="-102" type="curve" smooth="yes"/>
      <point x="733" y="-73"/>
      <point x="726" y="-64"/>
      <point x="707" y="-64" type="curve" smooth="yes"/>
      <point x="687" y="-64"/>
      <point x="660" y="-75"/>
      <point x="628" y="-75" type="curve" smooth="yes"/>
      <point x="517" y="-75"/>
      <point x="461" y="36"/>
      <point x="387" y="294" type="curve"/>
      <point x="569" y="385"/>
      <point x="714" y="545"/>
      <point x="742" y="605" type="curve" smooth="yes"/>
      <point x="748" y="619"/>
      <point x="752" y="633"/>
      <point x="752" y="645" type="curve" smooth="yes"/>
      <point x="752" y="660"/>
      <point x="745" y="672"/>
      <point x="724" y="672" type="curve" smooth="yes"/>
      <point x="698" y="672"/>
      <point x="683" y="644"/>
      <point x="658" y="610" type="curve" smooth="yes"/>
      <point x="604" y="537"/>
      <point x="478" y="417"/>
      <point x="320" y="332" type="curve"/>
      <point x="326" y="395"/>
      <point x="342" y="573"/>
      <point x="342" y="649" type="curve" smooth="yes"/>
      <point x="342" y="671"/>
      <point x="327" y="682"/>
      <point x="306" y="682" type="curve" smooth="yes"/>
      <point x="299" y="682" type="line" smooth="yes"/>
      <point x="47" y="648"/>
      <point x="-40" y="522"/>
      <point x="-40" y="392" type="curve" smooth="yes"/>
      <point x="-40" y="377"/>
      <point x="-39" y="363"/>
      <point x="-37" y="348" type="curve" smooth="yes"/>
      <point x="-33" y="323"/>
      <point x="-16" y="304"/>
      <point x="3" y="304" type="curve" smooth="yes"/>
      <point x="5" y="304"/>
      <point x="7" y="305"/>
      <point x="9" y="305" type="curve" smooth="yes"/>
      <point x="37" y="311"/>
      <point x="48" y="320"/>
      <point x="48" y="336" type="curve" smooth="yes"/>
      <point x="48" y="355"/>
      <point x="44" y="374"/>
      <point x="44" y="393" type="curve" smooth="yes"/>
      <point x="44" y="486"/>
      <point x="84" y="577"/>
      <point x="255" y="612" type="curve"/>
      <point x="255" y="177"/>
      <point x="174" y="-48"/>
      <point x="23" y="-48" type="curve" smooth="yes"/>
      <point x="4" y="-48"/>
      <point x="-11" y="-39"/>
      <point x="-27" y="-39" type="curve" smooth="yes"/>
      <point x="-48" y="-39"/>
      <point x="-70" y="-72"/>
      <point x="-70" y="-93" type="curve" smooth="yes"/>
      <point x="-70" y="-123"/>
      <point x="4" y="-127"/>
      <point x="36" y="-127" type="curve" smooth="yes"/>
      <point x="187" y="-127"/>
      <point x="265" y="18"/>
      <point x="314" y="294" type="curve"/>
      <point x="374" y="6"/>
      <point x="458" y="-146"/>
      <point x="610" y="-146" type="curve" smooth="yes"/>
      <point x="625" y="-146"/>
      <point x="733" y="-138"/>
    </contour>
  </outline>
</glyph>
<glyph name="X" format="1">
  <advance width="597"/>
  <unicode hex="0058"/>
  <outline>
    <contour>
      <point x="4" y="427" type="curve" smooth="yes"/>
      <point x="67" y="485"/>
      <point x="102" y="507"/>
      <point x="125" y="507" type="curve" smooth="yes"/>
      <point x="148" y="507"/>
      <point x="159" y="485"/>
      <point x="173" y="452" type="curve" smooth="yes"/>
      <point x="271" y="217" type="line"/>
      <point x="242" y="181"/>
      <point x="213" y="147"/>
      <point x="188" y="116" type="curve" smooth="yes"/>
      <point x="108" y="21"/>
      <point x="53" y="-7"/>
      <point x="-29" y="-7" type="curve" smooth="yes"/>
      <point x="-49" y="-7"/>
      <point x="-61" y="-28"/>
      <point x="-61" y="-50" type="curve" smooth="yes"/>
      <point x="-61" y="-73"/>
      <point x="-48" y="-96"/>
      <point x="-21" y="-96" type="curve" smooth="yes"/>
      <point x="51" y="-96"/>
      <point x="104" y="-82"/>
      <point x="218" y="59" type="curve" smooth="yes"/>
      <point x="243" y="90"/>
      <point x="269" y="123"/>
      <point x="296" y="156" type="curve"/>
      <point x="358" y="6" type="line" smooth="yes"/>
      <point x="386" y="-61"/>
      <point x="418" y="-91"/>
      <point x="456" y="-91" type="curve" smooth="yes"/>
      <point x="489" y="-91"/>
      <point x="526" y="-68"/>
      <point x="566" y="-28" type="curve" smooth="yes"/>
      <point x="676" y="79" type="line" smooth="yes"/>
      <point x="679" y="82"/>
      <point x="681" y="86"/>
      <point x="681" y="90" type="curve" smooth="yes"/>
      <point x="681" y="105"/>
      <point x="661" y="121"/>
      <point x="650" y="121" type="curve" smooth="yes"/>
      <point x="648" y="121"/>
      <point x="646" y="120"/>
      <point x="645" y="119" type="curve" smooth="yes"/>
      <point x="535" y="16" type="line" smooth="yes"/>
      <point x="519" y="1"/>
      <point x="506" y="-6"/>
      <point x="494" y="-6" type="curve" smooth="yes"/>
      <point x="469" y="-6"/>
      <point x="453" y="24"/>
      <point x="438" y="62" type="curve" smooth="yes"/>
      <point x="368" y="246" type="line"/>
      <point x="449" y="347"/>
      <point x="531" y="445"/>
      <point x="601" y="516" type="curve" smooth="yes"/>
      <point x="624" y="539"/>
      <point x="633" y="560"/>
      <point x="633" y="575" type="curve" smooth="yes"/>
      <point x="633" y="595"/>
      <point x="617" y="607"/>
      <point x="598" y="607" type="curve" smooth="yes"/>
      <point x="584" y="607"/>
      <point x="568" y="600"/>
      <point x="556" y="585" type="curve" smooth="yes"/>
      <point x="493" y="497"/>
      <point x="418" y="399"/>
      <point x="345" y="308" type="curve"/>
      <point x="276" y="489" type="line" smooth="yes"/>
      <point x="255" y="545"/>
      <point x="215" y="579"/>
      <point x="161" y="579" type="curve" smooth="yes"/>
      <point x="109" y="579"/>
      <point x="45" y="547"/>
      <point x="-29" y="471" type="curve" smooth="yes"/>
      <point x="-35" y="465"/>
      <point x="-38" y="458"/>
      <point x="-38" y="452" type="curve" smooth="yes"/>
      <point x="-38" y="436"/>
      <point x="-23" y="422"/>
      <point x="-9" y="422" type="curve" smooth="yes"/>
      <point x="-4" y="422"/>
      <point x="0" y="424"/>
    </contour>
  </outline>
</glyph>
<glyph name="b" format="1">
  <advance width="383"/>
  <unicode hex="0062"/>
  <outline>
    <contour>
      <point x="263" y="132" type="curve"/>
      <point x="249" y="92"/>
      <point x="223" y="60"/>
      <point x="187" y="60" type="curve" smooth="yes"/>
      <point x="141" y="60"/>
      <point x="127" y="100"/>
      <point x="127" y="141" type="curve" smooth="yes"/>
      <point x="127" y="201"/>
      <point x="171" y="265"/>
      <point x="229" y="265" type="curve" smooth="yes"/>
      <point x="268" y="265"/>
      <point x="274" y="248"/>
      <point x="274" y="224" type="curve" smooth="yes"/>
      <point x="274" y="221" type="line" smooth="yes"/>
      <point x="253" y="216"/>
      <point x="235" y="195"/>
      <point x="235" y="177" type="curve" smooth="yes"/>
      <point x="235" y="153"/>
      <point x="245" y="140"/>
    </contour>
    <contour>
      <point x="351" y="230" type="curve" smooth="yes"/>
      <point x="351" y="286"/>
      <point x="318" y="323"/>
      <point x="280" y="323" type="curve" smooth="yes"/>
      <point x="240" y="323"/>
      <point x="203" y="296"/>
      <point x="203" y="296" type="curve"/>
      <point x="269" y="348"/>
      <point x="349" y="486"/>
      <point x="356" y="567" type="curve" smooth="yes"/>
      <point x="356" y="572"/>
      <point x="357" y="576"/>
      <point x="357" y="581" type="curve" smooth="yes"/>
      <point x="357" y="620"/>
      <point x="340" y="656"/>
      <point x="293" y="656" type="curve" smooth="yes"/>
      <point x="148" y="656"/>
      <point x="45" y="358"/>
      <point x="38" y="140" type="curve" smooth="yes"/>
      <point x="38" y="133" type="line" smooth="yes"/>
      <point x="38" y="51"/>
      <point x="92" y="-5"/>
      <point x="184" y="-5" type="curve" smooth="yes"/>
      <point x="261" y="-5"/>
      <point x="313" y="46"/>
      <point x="337" y="125" type="curve"/>
      <point x="383" y="130"/>
      <point x="431" y="149"/>
      <point x="456" y="173" type="curve" smooth="yes"/>
      <point x="466" y="182"/>
      <point x="468" y="188"/>
      <point x="468" y="200" type="curve" smooth="yes"/>
      <point x="468" y="215"/>
      <point x="460" y="226"/>
      <point x="446" y="226" type="curve" smooth="yes"/>
      <point x="434" y="226"/>
      <point x="396" y="185"/>
      <point x="348" y="179" type="curve"/>
      <point x="350" y="195"/>
      <point x="351" y="212"/>
    </contour>
    <contour>
      <point x="124" y="264" type="curve"/>
      <point x="135" y="348"/>
      <point x="202" y="574"/>
      <point x="266" y="574" type="curve" smooth="yes"/>
      <point x="276" y="574"/>
      <point x="282" y="567"/>
      <point x="282" y="551" type="curve" smooth="yes"/>
      <point x="282" y="543" type="line" smooth="yes"/>
      <point x="274" y="454"/>
      <point x="183" y="342"/>
    </contour>
  </outline>
</glyph>
<glyph name="d" format="1">
  <advance width="385"/>
  <unicode hex="0064"/>
  <outline>
    <contour>
      <point x="134" y="339" type="move" name="top"/>
    </contour>
    <contour>
      <point x="521" y="555" type="move" name="caron.alt"/>
    </contour>
    <contour>
      <point x="237" y="441" type="move" name="mid"/>
    </contour>
    <contour>
      <point x="22" y="114" type="curve" smooth="yes"/>
      <point x="22" y="42"/>
      <point x="66" y="-5"/>
      <point x="123" y="-5" type="curve" smooth="yes"/>
      <point x="174" y="-5"/>
      <point x="209" y="20"/>
      <point x="228" y="66" type="curve"/>
      <point x="248" y="21"/>
      <point x="285" y="-3"/>
      <point x="326" y="-3" type="curve" smooth="yes"/>
      <point x="400" y="-3"/>
      <point x="449" y="44"/>
      <point x="481" y="85" type="curve" smooth="yes"/>
      <point x="484" y="89"/>
      <point x="489" y="98"/>
      <point x="489" y="107" type="curve" smooth="yes"/>
      <point x="489" y="126"/>
      <point x="472" y="138"/>
      <point x="458" y="138" type="curve" smooth="yes"/>
      <point x="451" y="138"/>
      <point x="446" y="137"/>
      <point x="442" y="133" type="curve" smooth="yes"/>
      <point x="425" y="111"/>
      <point x="379" y="60"/>
      <point x="334" y="60" type="curve" smooth="yes"/>
      <point x="307" y="60"/>
      <point x="288" y="86"/>
      <point x="288" y="146" type="curve" smooth="yes"/>
      <point x="288" y="155" type="line" smooth="yes"/>
      <point x="362" y="265"/>
      <point x="488" y="420"/>
      <point x="488" y="569" type="curve" smooth="yes"/>
      <point x="488" y="576"/>
      <point x="488" y="583"/>
      <point x="487" y="590" type="curve" smooth="yes"/>
      <point x="484" y="625"/>
      <point x="455" y="657"/>
      <point x="414" y="657" type="curve" smooth="yes"/>
      <point x="313" y="657"/>
      <point x="255" y="520"/>
      <point x="228" y="325" type="curve"/>
      <point x="216" y="329"/>
      <point x="204" y="331"/>
      <point x="193" y="331" type="curve" smooth="yes"/>
      <point x="102" y="331"/>
      <point x="22" y="221"/>
    </contour>
    <contour>
      <point x="139" y="65" type="curve" smooth="yes"/>
      <point x="125" y="65"/>
      <point x="104" y="71"/>
      <point x="101" y="111" type="curve" smooth="yes"/>
      <point x="101" y="122" type="line" smooth="yes"/>
      <point x="101" y="189"/>
      <point x="150" y="264"/>
      <point x="224" y="264" type="curve"/>
      <point x="212" y="188" type="line" smooth="yes"/>
      <point x="198" y="89"/>
      <point x="173" y="65"/>
    </contour>
    <contour>
      <point x="399" y="574" type="curve" smooth="yes"/>
      <point x="413" y="574"/>
      <point x="418" y="559"/>
      <point x="418" y="538" type="curve" smooth="yes"/>
      <point x="418" y="448"/>
      <point x="351" y="349"/>
      <point x="290" y="252" type="curve"/>
      <point x="308" y="390"/>
      <point x="334" y="574"/>
    </contour>
  </outline>
</glyph>
<glyph name="e" format="1">
  <advance width="288"/>
  <unicode hex="0065"/>
  <outline>
    <contour>
      <point x="216" y="339" type="move" name="top"/>
    </contour>
    <contour>
      <point x="184" y="0" type="move" name="ogonek"/>
    </contour>
    <contour>
      <point x="22" y="129" type="curve" smooth="yes"/>
      <point x="22" y="35"/>
      <point x="91" y="-6"/>
      <point x="163" y="-6" type="curve" smooth="yes"/>
      <point x="246" y="-6"/>
      <point x="324" y="46"/>
      <point x="354" y="88" type="curve" smooth="yes"/>
      <point x="359" y="95"/>
      <point x="361" y="101"/>
      <point x="361" y="107" type="curve" smooth="yes"/>
      <point x="361" y="122"/>
      <point x="348" y="132"/>
      <point x="336" y="132" type="curve" smooth="yes"/>
      <point x="332" y="132"/>
      <point x="328" y="131"/>
      <point x="325" y="128" type="curve" smooth="yes"/>
      <point x="279" y="84"/>
      <point x="220" y="60"/>
      <point x="174" y="60" type="curve" smooth="yes"/>
      <point x="139" y="60"/>
      <point x="112" y="73"/>
      <point x="102" y="103" type="curve"/>
      <point x="220" y="128"/>
      <point x="283" y="169"/>
      <point x="283" y="245" type="curve" smooth="yes"/>
      <point x="283" y="298"/>
      <point x="241" y="330"/>
      <point x="188" y="330" type="curve" smooth="yes"/>
      <point x="92" y="330"/>
      <point x="22" y="222"/>
    </contour>
    <contour>
      <point x="97" y="147" type="curve"/>
      <point x="97" y="204"/>
      <point x="144" y="265"/>
      <point x="193" y="265" type="curve" smooth="yes"/>
      <point x="208" y="265"/>
      <point x="222" y="258"/>
      <point x="222" y="237" type="curve" smooth="yes"/>
      <point x="222" y="195"/>
      <point x="138" y="161"/>
    </contour>
  </outline>
</glyph>
<glyph name="j" format="1">
  <advance width="221"/>
  <unicode hex="006A"/>
  <outline>
    <contour>
      <point x="80" y="-208" type="curve" smooth="yes"/>
      <point x="172" y="-208"/>
      <point x="208" y="-80"/>
      <point x="208" y="16" type="curve" smooth="yes"/>
      <point x="208" y="59"/>
      <point x="199" y="98"/>
      <point x="189" y="131" type="curve"/>
      <point x="250" y="132"/>
      <point x="332" y="146"/>
      <point x="332" y="211" type="curve" smooth="yes"/>
      <point x="332" y="223"/>
      <point x="328" y="231"/>
      <point x="320" y="231" type="curve" smooth="yes"/>
      <point x="318" y="231"/>
      <point x="315" y="231"/>
      <point x="312" y="229" type="curve" smooth="yes"/>
      <point x="250" y="203"/>
      <point x="211" y="198"/>
      <point x="135" y="186" type="curve"/>
      <point x="159" y="241" type="line" smooth="yes"/>
      <point x="167" y="258"/>
      <point x="181" y="285"/>
      <point x="181" y="308" type="curve" smooth="yes"/>
      <point x="181" y="319"/>
      <point x="174" y="328"/>
      <point x="161" y="328" type="curve" smooth="yes"/>
      <point x="115" y="328"/>
      <point x="102" y="315"/>
      <point x="87" y="280" type="curve" smooth="yes"/>
      <point x="44" y="178"/>
      <point x="7" y="58"/>
      <point x="7" y="-78" type="curve" smooth="yes"/>
      <point x="7" y="-146"/>
      <point x="20" y="-208"/>
    </contour>
    <contour>
      <point x="143" y="12" type="curve" smooth="yes"/>
      <point x="143" y="-43"/>
      <point x="131" y="-131"/>
      <point x="98" y="-131" type="curve" smooth="yes"/>
      <point x="84" y="-131"/>
      <point x="81" y="-107"/>
      <point x="81" y="-85" type="curve" smooth="yes"/>
      <point x="81" y="-78"/>
      <point x="82" y="-71"/>
      <point x="82" y="-65" type="curve" smooth="yes"/>
      <point x="89" y="14"/>
      <point x="105" y="84"/>
      <point x="123" y="153" type="curve"/>
      <point x="132" y="108"/>
      <point x="143" y="63"/>
    </contour>
    <contour>
      <point x="186" y="394" type="curve" smooth="yes"/>
      <point x="221" y="394"/>
      <point x="244" y="415"/>
      <point x="244" y="450" type="curve" smooth="yes"/>
      <point x="244" y="481"/>
      <point x="223" y="495"/>
      <point x="194" y="495" type="curve" smooth="yes"/>
      <point x="159" y="495"/>
      <point x="132" y="475"/>
      <point x="132" y="441" type="curve" smooth="yes"/>
      <point x="132" y="410"/>
      <point x="152" y="394"/>
    </contour>
  </outline>
</glyph>
<glyph name="o" format="1">
  <advance width="315"/>
  <unicode hex="006F"/>
  <outline>
    <contour>
      <point x="196" y="339" type="move" name="top"/>
    </contour>
    <contour>
      <point x="138" y="14" type="move" name="ogonek"/>
    </contour>
    <contour>
      <point x="128" y="-5" type="curve" smooth="yes"/>
      <point x="229" y="-5"/>
      <point x="265" y="75"/>
      <point x="278" y="128" type="curve"/>
      <point x="367" y="152"/>
      <point x="415" y="202"/>
      <point x="444" y="238" type="curve" smooth="yes"/>
      <point x="447" y="241"/>
      <point x="448" y="246"/>
      <point x="448" y="250" type="curve" smooth="yes"/>
      <point x="448" y="264"/>
      <point x="437" y="280"/>
      <point x="426" y="280" type="curve" smooth="yes"/>
      <point x="423" y="280"/>
      <point x="420" y="279"/>
      <point x="417" y="276" type="curve" smooth="yes"/>
      <point x="388" y="243"/>
      <point x="344" y="202"/>
      <point x="288" y="192" type="curve"/>
      <point x="290" y="203"/>
      <point x="292" y="214"/>
      <point x="292" y="224" type="curve" smooth="yes"/>
      <point x="292" y="286"/>
      <point x="249" y="330"/>
      <point x="193" y="330" type="curve" smooth="yes"/>
      <point x="96" y="330"/>
      <point x="14" y="229"/>
      <point x="14" y="121" type="curve" smooth="yes"/>
      <point x="14" y="50"/>
      <point x="60" y="-5"/>
    </contour>
    <contour>
      <point x="143" y="59" type="curve" smooth="yes"/>
      <point x="104" y="59"/>
      <point x="92" y="88"/>
      <point x="92" y="125" type="curve" smooth="yes"/>
      <point x="92" y="184"/>
      <point x="130" y="262"/>
      <point x="184" y="262" type="curve" smooth="yes"/>
      <point x="206" y="262"/>
      <point x="206" y="237"/>
      <point x="206" y="237" type="curve"/>
      <point x="188" y="220"/>
      <point x="180" y="204"/>
      <point x="180" y="190" type="curve" smooth="yes"/>
      <point x="180" y="173"/>
      <point x="192" y="157"/>
      <point x="217" y="146" type="curve"/>
      <point x="213" y="110"/>
      <point x="180" y="59"/>
    </contour>
  </outline>
</glyph>
<glyph name="q" format="1">
  <advance width="372"/>
  <unicode hex="0071"/>
  <outline>
    <contour>
      <point x="295" y="71" type="line"/>
      <point x="348" y="84"/>
      <point x="437" y="177"/>
      <point x="464" y="231" type="curve" smooth="yes"/>
      <point x="466" y="235"/>
      <point x="467" y="239"/>
      <point x="467" y="243" type="curve" smooth="yes"/>
      <point x="467" y="258"/>
      <point x="454" y="271"/>
      <point x="440" y="271" type="curve" smooth="yes"/>
      <point x="434" y="271"/>
      <point x="427" y="268"/>
      <point x="422" y="261" type="curve" smooth="yes"/>
      <point x="395" y="222"/>
      <point x="354" y="176"/>
      <point x="320" y="151" type="curve"/>
      <point x="333" y="195"/>
      <point x="345" y="243"/>
      <point x="345" y="272" type="curve" smooth="yes"/>
      <point x="345" y="299"/>
      <point x="282" y="334"/>
      <point x="215" y="334" type="curve" smooth="yes"/>
      <point x="97" y="330"/>
      <point x="39" y="232"/>
      <point x="39" y="141" type="curve" smooth="yes"/>
      <point x="39" y="62"/>
      <point x="82" y="-11"/>
      <point x="168" y="-11" type="curve" smooth="yes"/>
      <point x="177" y="-11"/>
      <point x="188" y="-10"/>
      <point x="198" y="-8" type="curve"/>
      <point x="180" y="-77"/>
      <point x="150" y="-168"/>
      <point x="126" y="-241" type="curve" smooth="yes"/>
      <point x="125" y="-243"/>
      <point x="125" y="-244"/>
      <point x="125" y="-246" type="curve" smooth="yes"/>
      <point x="125" y="-262"/>
      <point x="151" y="-279"/>
      <point x="173" y="-279" type="curve" smooth="yes"/>
      <point x="186" y="-279"/>
      <point x="198" y="-272"/>
      <point x="203" y="-256" type="curve" smooth="yes"/>
    </contour>
    <contour>
      <point x="210" y="51" type="curve"/>
      <point x="202" y="50"/>
      <point x="196" y="49"/>
      <point x="189" y="49" type="curve" smooth="yes"/>
      <point x="137" y="49"/>
      <point x="114" y="91"/>
      <point x="114" y="139" type="curve" smooth="yes"/>
      <point x="114" y="203"/>
      <point x="155" y="278"/>
      <point x="221" y="278" type="curve" smooth="yes"/>
      <point x="241" y="278"/>
      <point x="269" y="271"/>
      <point x="269" y="266" type="curve" smooth="yes"/>
      <point x="269" y="249"/>
      <point x="255" y="196"/>
      <point x="239" y="142" type="curve"/>
      <point x="217" y="136"/>
      <point x="206" y="114"/>
      <point x="206" y="94" type="curve" smooth="yes"/>
      <point x="206" y="83"/>
      <point x="209" y="74"/>
      <point x="215" y="66" type="curve"/>
      <point x="213" y="61"/>
      <point x="212" y="56"/>
    </contour>
  </outline>
</glyph>
<glyph name="z" format="1">
  <advance width="235"/>
  <unicode hex="007A"/>
  <outline>
    <contour>
      <point x="176" y="339" type="move" name="top"/>
    </contour>
    <contour>
      <point x="297" y="65" type="curve" smooth="yes"/>
      <point x="305" y="71"/>
      <point x="308" y="81"/>
      <point x="308" y="90" type="curve" smooth="yes"/>
      <point x="308" y="104"/>
      <point x="301" y="118"/>
      <point x="293" y="118" type="curve" smooth="yes"/>
      <point x="292" y="118"/>
      <point x="290" y="118"/>
      <point x="289" y="117" type="curve" smooth="yes"/>
      <point x="211" y="71"/>
      <point x="156" y="56"/>
      <point x="121" y="56" type="curve" smooth="yes"/>
      <point x="88" y="56"/>
      <point x="72" y="69"/>
      <point x="72" y="84" type="curve"/>
      <point x="92" y="102"/>
      <point x="219" y="215"/>
      <point x="239" y="236" type="curve" smooth="yes"/>
      <point x="254" y="252"/>
      <point x="255" y="275"/>
      <point x="255" y="289" type="curve" smooth="yes"/>
      <point x="255" y="303"/>
      <point x="241" y="317"/>
      <point x="220" y="317" type="curve" smooth="yes"/>
      <point x="203" y="317"/>
      <point x="109" y="316"/>
      <point x="50" y="316" type="curve" smooth="yes"/>
      <point x="31" y="316"/>
      <point x="25" y="304"/>
      <point x="25" y="291" type="curve" smooth="yes"/>
      <point x="25" y="274"/>
      <point x="35" y="255"/>
      <point x="43" y="255" type="curve" smooth="yes"/>
      <point x="69" y="255"/>
      <point x="139" y="259"/>
      <point x="189" y="263" type="curve"/>
      <point x="40" y="137" type="line" smooth="yes"/>
      <point x="24" y="123"/>
      <point x="2" y="101"/>
      <point x="2" y="68" type="curve" smooth="yes"/>
      <point x="2" y="23"/>
      <point x="46" y="-5"/>
      <point x="109" y="-5" type="curve" smooth="yes"/>
      <point x="163" y="-5"/>
      <point x="231" y="16"/>
    </contour>
  </outline>
</glyph>
<glyph name="braceleft" format="1">
  <advance width="394"/>
  <unicode hex="007B"/>
  <outline>
    <contour>
      <point x="100" y="323" type="curve" smooth="yes"/>
      <point x="80" y="323"/>
      <point x="66" y="311"/>
      <point x="66" y="286" type="curve" smooth="yes"/>
      <point x="66" y="267"/>
      <point x="75" y="253"/>
      <point x="91" y="251" type="curve" smooth="yes"/>
      <point x="162" y="245"/>
      <point x="170" y="229"/>
      <point x="170" y="192" type="curve" smooth="yes"/>
      <point x="170" y="135"/>
      <point x="155" y="84"/>
      <point x="155" y="34" type="curve" smooth="yes"/>
      <point x="155" y="-48"/>
      <point x="190" y="-93"/>
      <point x="290" y="-93" type="curve" smooth="yes"/>
      <point x="305" y="-93"/>
      <point x="321" y="-92"/>
      <point x="338" y="-90" type="curve" smooth="yes"/>
      <point x="349" y="-89"/>
      <point x="355" y="-76"/>
      <point x="355" y="-64" type="curve" smooth="yes"/>
      <point x="355" y="-50"/>
      <point x="348" y="-35"/>
      <point x="332" y="-35" type="curve" smooth="yes"/>
      <point x="321" y="-35"/>
      <point x="310" y="-36"/>
      <point x="301" y="-36" type="curve" smooth="yes"/>
      <point x="229" y="-36"/>
      <point x="229" y="-13"/>
      <point x="229" y="41" type="curve" smooth="yes"/>
      <point x="229" y="91"/>
      <point x="244" y="147"/>
      <point x="244" y="200" type="curve" smooth="yes"/>
      <point x="244" y="240"/>
      <point x="220" y="266"/>
      <point x="188" y="281" type="curve"/>
      <point x="229" y="292"/>
      <point x="260" y="320"/>
      <point x="263" y="372" type="curve" smooth="yes"/>
      <point x="272" y="541"/>
      <point x="281" y="584"/>
      <point x="329" y="591" type="curve" smooth="yes"/>
      <point x="334" y="592"/>
      <point x="339" y="592"/>
      <point x="343" y="592" type="curve" smooth="yes"/>
      <point x="371" y="592"/>
      <point x="398" y="582"/>
      <point x="414" y="576" type="curve" smooth="yes"/>
      <point x="417" y="575"/>
      <point x="420" y="574"/>
      <point x="423" y="574" type="curve" smooth="yes"/>
      <point x="438" y="574"/>
      <point x="446" y="589"/>
      <point x="446" y="602" type="curve" smooth="yes"/>
      <point x="446" y="611"/>
      <point x="443" y="619"/>
      <point x="436" y="623" type="curve" smooth="yes"/>
      <point x="413" y="636"/>
      <point x="374" y="650"/>
      <point x="333" y="650" type="curve" smooth="yes"/>
      <point x="224" y="650"/>
      <point x="201" y="571"/>
      <point x="191" y="393" type="curve" smooth="yes"/>
      <point x="188" y="346"/>
      <point x="174" y="322"/>
      <point x="122" y="322" type="curve" smooth="yes"/>
      <point x="115" y="322"/>
      <point x="107" y="323"/>
    </contour>
  </outline>
</glyph>
<glyph name="brokenbar" format="1">
  <advance width="350"/>
  <unicode hex="00A6"/>
  <outline>
    <contour>
      <point x="142" y="-55" type="curve" smooth="yes"/>
      <point x="168" y="-55"/>
      <point x="189" y="-48"/>
      <point x="193" y="-22" type="curve" smooth="yes"/>
      <point x="210" y="81"/>
      <point x="224" y="157"/>
      <point x="224" y="200" type="curve" smooth="yes"/>
      <point x="224" y="229"/>
      <point x="210" y="256"/>
      <point x="182" y="256" type="curve" smooth="yes"/>
      <point x="154" y="256"/>
      <point x="140" y="233"/>
      <point x="137" y="208" type="curve" smooth="yes"/>
      <point x="126" y="136"/>
      <point x="105" y="75"/>
      <point x="105" y="0" type="curve" smooth="yes"/>
      <point x="105" y="-26"/>
      <point x="116" y="-55"/>
    </contour>
    <contour>
      <point x="210" y="322" type="curve" smooth="yes"/>
      <point x="237" y="322"/>
      <point x="248" y="347"/>
      <point x="251" y="372" type="curve" smooth="yes"/>
      <point x="258" y="433"/>
      <point x="276" y="503"/>
      <point x="276" y="570" type="curve" smooth="yes"/>
      <point x="276" y="601"/>
      <point x="266" y="634"/>
      <point x="236" y="634" type="curve" smooth="yes"/>
      <point x="214" y="634"/>
      <point x="201" y="612"/>
      <point x="196" y="591" type="curve" smooth="yes"/>
      <point x="179" y="515"/>
      <point x="165" y="389"/>
      <point x="165" y="379" type="curve" smooth="yes"/>
      <point x="165" y="347"/>
      <point x="183" y="322"/>
    </contour>
  </outline>
</glyph>
<glyph name="dieresis" format="1">
  <advance width="350"/>
  <unicode hex="00A8"/>
  <outline>
    <contour>
      <point x="126" y="339" type="move" name="_top"/>
    </contour>
    <contour>
      <point x="45" y="428" type="curve" smooth="yes"/>
      <point x="67" y="428"/>
      <point x="97" y="443"/>
      <point x="97" y="479" type="curve" smooth="yes"/>
      <point x="97" y="505"/>
      <point x="86" y="523"/>
      <point x="48" y="523" type="curve" smooth="yes"/>
      <point x="27" y="523"/>
      <point x="-2" y="508"/>
      <point x="-2" y="472" type="curve" smooth="yes"/>
      <point x="-2" y="445"/>
      <point x="9" y="428"/>
    </contour>
    <contour>
      <point x="241" y="428" type="curve" smooth="yes"/>
      <point x="264" y="428"/>
      <point x="292" y="442"/>
      <point x="292" y="475" type="curve" smooth="yes"/>
      <point x="292" y="505"/>
      <point x="279" y="523"/>
      <point x="242" y="523" type="curve" smooth="yes"/>
      <point x="220" y="523"/>
      <point x="193" y="508"/>
      <point x="193" y="476" type="curve" smooth="yes"/>
      <point x="193" y="446"/>
      <point x="205" y="428"/>
    </contour>
  </outline>
</glyph>
<glyph name="Hbar" format="1">
  <advance width="734"/>
  <unicode hex="0126"/>
  <outline>
    <component base="H"/>
    <contour>
      <point x="111" y="388" type="curve" smooth="yes"/>
      <point x="631" y="398" type="line" smooth="yes"/>
      <point x="650" y="399"/>
      <point x="659" y="414"/>
      <point x="659" y="429" type="curve" smooth="yes"/>
      <point x="659" y="442"/>
      <point x="651" y="455"/>
      <point x="637" y="455" type="curve" smooth="yes"/>
      <point x="636" y="455" type="line"/>
      <point x="117" y="434" type="line" smooth="yes"/>
      <point x="97" y="433"/>
      <point x="88" y="421"/>
      <point x="88" y="409" type="curve" smooth="yes"/>
      <point x="88" y="398"/>
      <point x="96" y="388"/>
    </contour>
  </outline>
</glyph>
<glyph name="kgreenlandic" format="1">
  <advance width="432"/>
  <unicode hex="0138"/>
  <outline>
    <contour>
      <point x="240" y="72" type="curve" smooth="yes"/>
      <point x="240" y="11"/>
      <point x="294" y="-7"/>
      <point x="324" y="-7" type="curve" smooth="yes"/>
      <point x="390" y="-7"/>
      <point x="467" y="53"/>
      <point x="497" y="100" type="curve" smooth="yes"/>
      <point x="500" y="105"/>
      <point x="502" y="110"/>
      <point x="502" y="116" type="curve" smooth="yes"/>
      <point x="502" y="133"/>
      <point x="489" y="151"/>
      <point x="476" y="151" type="curve" smooth="yes"/>
      <point x="471" y="151"/>
      <point x="466" y="149"/>
      <point x="462" y="143" type="curve" smooth="yes"/>
      <point x="429" y="97"/>
      <point x="380" y="59"/>
      <point x="347" y="54" type="curve" smooth="yes"/>
      <point x="341" y="53"/>
      <point x="336" y="53"/>
      <point x="332" y="53" type="curve" smooth="yes"/>
      <point x="314" y="53"/>
      <point x="306" y="59"/>
      <point x="306" y="72" type="curve" smooth="yes"/>
      <point x="306" y="77" type="line" smooth="yes"/>
      <point x="317" y="144"/>
      <point x="437" y="158"/>
      <point x="437" y="256" type="curve" smooth="yes"/>
      <point x="437" y="296"/>
      <point x="413" y="322"/>
      <point x="370" y="322" type="curve" smooth="yes"/>
      <point x="287" y="322"/>
      <point x="206" y="241"/>
      <point x="114" y="77" type="curve"/>
      <point x="114" y="94"/>
      <point x="124" y="178"/>
      <point x="129" y="207" type="curve"/>
      <point x="228" y="277"/>
      <point x="271" y="345"/>
      <point x="271" y="391" type="curve" smooth="yes"/>
      <point x="271" y="426"/>
      <point x="245" y="450"/>
      <point x="202" y="450" type="curve" smooth="yes"/>
      <point x="90" y="450"/>
      <point x="46" y="224"/>
      <point x="46" y="79" type="curve" smooth="yes"/>
      <point x="46" y="46"/>
      <point x="53" y="-4"/>
      <point x="83" y="-4" type="curve" smooth="yes"/>
      <point x="170" y="-4"/>
      <point x="243" y="236"/>
      <point x="342" y="236" type="curve" smooth="yes"/>
      <point x="354" y="236"/>
      <point x="354" y="226"/>
      <point x="354" y="220" type="curve" smooth="yes"/>
      <point x="350" y="183"/>
      <point x="240" y="148"/>
    </contour>
    <contour>
      <point x="136" y="274" type="curve"/>
      <point x="148" y="338"/>
      <point x="171" y="388"/>
      <point x="199" y="388" type="curve" smooth="yes"/>
      <point x="208" y="388"/>
      <point x="211" y="384"/>
      <point x="211" y="377" type="curve" smooth="yes"/>
      <point x="211" y="355"/>
      <point x="172" y="304"/>
    </contour>
  </outline>
</glyph>
<glyph name="Eng" format="1">
  <advance width="538"/>
  <unicode hex="014A"/>
  <outline>
    <contour>
      <point x="53" y="-264" type="line" smooth="yes"/>
      <point x="53" y="-296"/>
      <point x="76" y="-316"/>
      <point x="121" y="-316" type="curve" smooth="yes"/>
      <point x="204" y="-316"/>
      <point x="308" y="-224"/>
      <point x="385" y="-25" type="curve"/>
      <point x="453" y="15"/>
      <point x="501" y="26"/>
      <point x="552" y="52" type="curve" smooth="yes"/>
      <point x="575" y="64"/>
      <point x="585" y="79"/>
      <point x="585" y="90" type="curve" smooth="yes"/>
      <point x="585" y="100"/>
      <point x="577" y="107"/>
      <point x="565" y="107" type="curve" smooth="yes"/>
      <point x="562" y="107"/>
      <point x="560" y="107"/>
      <point x="557" y="106" type="curve" smooth="yes"/>
      <point x="526" y="99"/>
      <point x="454" y="66"/>
      <point x="398" y="34" type="curve"/>
      <point x="482" y="274"/>
      <point x="553" y="440"/>
      <point x="553" y="542" type="curve" smooth="yes"/>
      <point x="553" y="604"/>
      <point x="512" y="643"/>
      <point x="439" y="643" type="curve" smooth="yes"/>
      <point x="283" y="643"/>
      <point x="204" y="474"/>
      <point x="151" y="332" type="curve"/>
      <point x="171" y="416"/>
      <point x="189" y="502"/>
      <point x="189" y="549" type="curve" smooth="yes"/>
      <point x="189" y="604"/>
      <point x="150" y="638"/>
      <point x="103" y="638" type="curve" smooth="yes"/>
      <point x="95" y="638" type="line" smooth="yes"/>
      <point x="16" y="631"/>
      <point x="-42" y="571"/>
      <point x="-72" y="505" type="curve" smooth="yes"/>
      <point x="-75" y="498"/>
      <point x="-76" y="492"/>
      <point x="-76" y="486" type="curve" smooth="yes"/>
      <point x="-76" y="455"/>
      <point x="-37" y="436"/>
      <point x="-23" y="436" type="curve" smooth="yes"/>
      <point x="-20" y="436"/>
      <point x="-18" y="436"/>
      <point x="-18" y="438" type="curve" smooth="yes"/>
      <point x="-1" y="484"/>
      <point x="52" y="571"/>
      <point x="87" y="571" type="curve" smooth="yes"/>
      <point x="88" y="571" type="line" smooth="yes"/>
      <point x="113" y="571"/>
      <point x="112" y="521"/>
      <point x="112" y="510" type="curve" smooth="yes"/>
      <point x="112" y="390"/>
      <point x="13" y="122"/>
      <point x="-42" y="-17" type="curve"/>
      <point x="-42" y="-17"/>
      <point x="-19" y="-42"/>
      <point x="13" y="-42" type="curve" smooth="yes"/>
      <point x="53" y="-42"/>
      <point x="59" y="-9"/>
      <point x="72" y="22" type="curve" smooth="yes"/>
      <point x="179" y="287"/>
      <point x="290" y="555"/>
      <point x="424" y="555" type="curve" smooth="yes"/>
      <point x="451" y="555"/>
      <point x="463" y="534"/>
      <point x="463" y="510" type="curve" smooth="yes"/>
      <point x="463" y="438"/>
      <point x="405" y="276"/>
      <point x="306" y="-2" type="curve"/>
      <point x="154" y="-81"/>
      <point x="60" y="-190"/>
      <point x="53" y="-257" type="curve" smooth="yes"/>
    </contour>
    <contour>
      <point x="123" y="-263" type="curve" smooth="yes"/>
      <point x="113" y="-263"/>
      <point x="107" y="-257"/>
      <point x="107" y="-247" type="curve" smooth="yes"/>
      <point x="107" y="-208"/>
      <point x="173" y="-120"/>
      <point x="290" y="-58" type="curve"/>
      <point x="262" y="-131"/>
      <point x="194" y="-263"/>
    </contour>
  </outline>
</glyph>
<glyph name="eng" format="1">
  <advance width="337"/>
  <unicode hex="014B"/>
  <outline>
    <contour>
      <point x="-18" y="-193" type="curve" smooth="yes"/>
      <point x="-18" y="-219"/>
      <point x="1" y="-237"/>
      <point x="38" y="-237" type="curve" smooth="yes"/>
      <point x="72" y="-237"/>
      <point x="109" y="-220"/>
      <point x="147" y="-182" type="curve" smooth="yes"/>
      <point x="188" y="-142"/>
      <point x="227" y="-80"/>
      <point x="260" y="6" type="curve"/>
      <point x="316" y="41"/>
      <point x="357" y="50"/>
      <point x="400" y="72" type="curve" smooth="yes"/>
      <point x="419" y="82"/>
      <point x="427" y="94"/>
      <point x="427" y="104" type="curve" smooth="yes"/>
      <point x="427" y="112"/>
      <point x="420" y="118"/>
      <point x="410" y="118" type="curve" smooth="yes"/>
      <point x="408" y="118"/>
      <point x="406" y="118"/>
      <point x="403" y="117" type="curve" smooth="yes"/>
      <point x="378" y="110"/>
      <point x="317" y="83"/>
      <point x="271" y="56" type="curve"/>
      <point x="293" y="118" type="line" smooth="yes"/>
      <point x="303" y="148"/>
      <point x="333" y="249"/>
      <point x="333" y="299" type="curve" smooth="yes"/>
      <point x="333" y="313"/>
      <point x="321" y="328"/>
      <point x="295" y="328" type="curve" smooth="yes"/>
      <point x="252" y="328"/>
      <point x="191" y="263"/>
      <point x="111" y="136" type="curve"/>
      <point x="121" y="179"/>
      <point x="141" y="260"/>
      <point x="152" y="294" type="curve" smooth="yes"/>
      <point x="153" y="297"/>
      <point x="154" y="300"/>
      <point x="154" y="303" type="curve" smooth="yes"/>
      <point x="154" y="317"/>
      <point x="142" y="330"/>
      <point x="125" y="330" type="curve" smooth="yes"/>
      <point x="101" y="330"/>
      <point x="88" y="314"/>
      <point x="81" y="294" type="curve" smooth="yes"/>
      <point x="58" y="230"/>
      <point x="40" y="143"/>
      <point x="40" y="74" type="curve" smooth="yes"/>
      <point x="40" y="53" type="line" smooth="yes"/>
      <point x="40" y="24"/>
      <point x="44" y="0"/>
      <point x="71" y="0" type="curve" smooth="yes"/>
      <point x="93" y="0"/>
      <point x="102" y="17"/>
      <point x="121" y="50" type="curve" smooth="yes"/>
      <point x="173" y="140"/>
      <point x="217" y="201"/>
      <point x="260" y="229" type="curve"/>
      <point x="250" y="193"/>
      <point x="235" y="142"/>
      <point x="227" y="118" type="curve" smooth="yes"/>
      <point x="194" y="26" type="line"/>
      <point x="146" y="1"/>
      <point x="105" y="-27"/>
      <point x="73" y="-56" type="curve" smooth="yes"/>
      <point x="40" y="-84"/>
      <point x="15" y="-113"/>
      <point x="0" y="-140" type="curve" smooth="yes"/>
      <point x="-12" y="-160"/>
      <point x="-18" y="-178"/>
    </contour>
    <contour>
      <point x="182" y="-34" type="curve"/>
      <point x="159" y="-82"/>
      <point x="101" y="-176"/>
      <point x="56" y="-176" type="curve" smooth="yes"/>
      <point x="51" y="-176" type="line" smooth="yes"/>
      <point x="46" y="-176"/>
      <point x="43" y="-171"/>
      <point x="43" y="-167" type="curve" smooth="yes"/>
      <point x="43" y="-144"/>
      <point x="92" y="-83"/>
    </contour>
  </outline>
</glyph>
<glyph name="oe" format="1">
  <advance width="466"/>
  <unicode hex="0153"/>
  <outline>
    <contour>
      <point x="221" y="52" type="curve"/>
      <point x="246" y="12"/>
      <point x="293" y="-6"/>
      <point x="340" y="-6" type="curve" smooth="yes"/>
      <point x="423" y="-6"/>
      <point x="502" y="46"/>
      <point x="533" y="88" type="curve" smooth="yes"/>
      <point x="538" y="95"/>
      <point x="540" y="101"/>
      <point x="540" y="107" type="curve" smooth="yes"/>
      <point x="540" y="122"/>
      <point x="527" y="132"/>
      <point x="515" y="132" type="curve" smooth="yes"/>
      <point x="511" y="132"/>
      <point x="506" y="131"/>
      <point x="503" y="128" type="curve" smooth="yes"/>
      <point x="457" y="84"/>
      <point x="398" y="60"/>
      <point x="352" y="60" type="curve" smooth="yes"/>
      <point x="317" y="60"/>
      <point x="290" y="73"/>
      <point x="280" y="103" type="curve"/>
      <point x="398" y="128"/>
      <point x="461" y="169"/>
      <point x="461" y="245" type="curve" smooth="yes"/>
      <point x="461" y="298"/>
      <point x="419" y="330"/>
      <point x="367" y="330" type="curve" smooth="yes"/>
      <point x="318" y="330"/>
      <point x="276" y="302"/>
      <point x="247" y="263" type="curve"/>
      <point x="231" y="301"/>
      <point x="203" y="328"/>
      <point x="159" y="328" type="curve" smooth="yes"/>
      <point x="93" y="328"/>
      <point x="14" y="258"/>
      <point x="14" y="132" type="curve" smooth="yes"/>
      <point x="14" y="50"/>
      <point x="55" y="0"/>
      <point x="129" y="0" type="curve" smooth="yes"/>
      <point x="169" y="0"/>
      <point x="201" y="24"/>
    </contour>
    <contour>
      <point x="90" y="129" type="curve" smooth="yes"/>
      <point x="90" y="204"/>
      <point x="116" y="265"/>
      <point x="161" y="265" type="curve" smooth="yes"/>
      <point x="194" y="265"/>
      <point x="201" y="221"/>
      <point x="201" y="188" type="curve" smooth="yes"/>
      <point x="201" y="124"/>
      <point x="182" y="61"/>
      <point x="138" y="61" type="curve" smooth="yes"/>
      <point x="105" y="61"/>
      <point x="90" y="95"/>
    </contour>
    <contour>
      <point x="275" y="147" type="curve"/>
      <point x="275" y="204"/>
      <point x="322" y="265"/>
      <point x="371" y="265" type="curve" smooth="yes"/>
      <point x="387" y="265"/>
      <point x="400" y="258"/>
      <point x="400" y="237" type="curve" smooth="yes"/>
      <point x="400" y="195"/>
      <point x="317" y="161"/>
    </contour>
  </outline>
</glyph>
<glyph name="uni01C7" format="1">
  <advance width="1129"/>
  <unicode hex="01C7"/>
  <outline>
    <contour>
      <point x="1134" y="667" type="curve"/>
      <point x="1050" y="672"/>
      <point x="979" y="679"/>
      <point x="900" y="679" type="curve" smooth="yes"/>
      <point x="840" y="679"/>
      <point x="811" y="672"/>
      <point x="795" y="650" type="curve"/>
      <point x="763" y="685"/>
      <point x="713" y="708"/>
      <point x="649" y="708" type="curve" smooth="yes"/>
      <point x="636" y="708"/>
      <point x="622" y="707"/>
      <point x="608" y="705" type="curve" smooth="yes"/>
      <point x="501" y="689"/>
      <point x="398" y="618"/>
      <point x="396" y="421" type="curve"/>
      <point x="362" y="426"/>
      <point x="325" y="433"/>
      <point x="285" y="442" type="curve" smooth="yes"/>
      <point x="282" y="443"/>
      <point x="280" y="443"/>
      <point x="277" y="443" type="curve" smooth="yes"/>
      <point x="257" y="443"/>
      <point x="244" y="423"/>
      <point x="244" y="405" type="curve" smooth="yes"/>
      <point x="244" y="393"/>
      <point x="249" y="383"/>
      <point x="262" y="380" type="curve" smooth="yes"/>
      <point x="310" y="369"/>
      <point x="355" y="361"/>
      <point x="396" y="356" type="curve"/>
      <point x="396" y="244"/>
      <point x="393" y="130"/>
      <point x="353" y="53" type="curve"/>
      <point x="300" y="86"/>
      <point x="240" y="118"/>
      <point x="165" y="118" type="curve" smooth="yes"/>
      <point x="92" y="118"/>
      <point x="54" y="66"/>
      <point x="54" y="13" type="curve" smooth="yes"/>
      <point x="54" y="-44"/>
      <point x="98" y="-104"/>
      <point x="189" y="-104" type="curve" smooth="yes"/>
      <point x="267" y="-104"/>
      <point x="326" y="-80"/>
      <point x="371" y="-39" type="curve"/>
      <point x="422" y="-70"/>
      <point x="472" y="-98"/>
      <point x="521" y="-98" type="curve" smooth="yes"/>
      <point x="572" y="-98"/>
      <point x="622" y="-68"/>
      <point x="671" y="20" type="curve" smooth="yes"/>
      <point x="675" y="27"/>
      <point x="677" y="33"/>
      <point x="677" y="39" type="curve" smooth="yes"/>
      <point x="677" y="53"/>
      <point x="667" y="62"/>
      <point x="654" y="62" type="curve" smooth="yes"/>
      <point x="645" y="62"/>
      <point x="636" y="58"/>
      <point x="627" y="48" type="curve" smooth="yes"/>
      <point x="586" y="-2"/>
      <point x="549" y="-20"/>
      <point x="513" y="-20" type="curve" smooth="yes"/>
      <point x="480" y="-20"/>
      <point x="449" y="-5"/>
      <point x="415" y="15" type="curve"/>
      <point x="464" y="91"/>
      <point x="483" y="196"/>
      <point x="483" y="303" type="curve" smooth="yes"/>
      <point x="483" y="318"/>
      <point x="483" y="334"/>
      <point x="482" y="349" type="curve"/>
      <point x="508" y="349" type="line" smooth="yes"/>
      <point x="740" y="349"/>
      <point x="836" y="452"/>
      <point x="836" y="548" type="curve" smooth="yes"/>
      <point x="836" y="560"/>
      <point x="835" y="571"/>
      <point x="832" y="583" type="curve"/>
      <point x="844" y="586"/>
      <point x="861" y="587"/>
      <point x="886" y="587" type="curve" smooth="yes"/>
      <point x="950" y="587"/>
      <point x="1044" y="581"/>
      <point x="1111" y="579" type="curve"/>
      <point x="1067" y="381"/>
      <point x="928" y="-130"/>
      <point x="821" y="-130" type="curve" smooth="yes"/>
      <point x="775" y="-130"/>
      <point x="773" y="-81"/>
      <point x="767" y="1" type="curve" smooth="yes"/>
      <point x="765" y="24"/>
      <point x="750" y="37"/>
      <point x="735" y="37" type="curve" smooth="yes"/>
      <point x="720" y="37"/>
      <point x="705" y="23"/>
      <point x="705" y="-7" type="curve" smooth="yes"/>
      <point x="705" y="-130"/>
      <point x="747" y="-195"/>
      <point x="815" y="-195" type="curve" smooth="yes"/>
      <point x="820" y="-195"/>
      <point x="825" y="-195"/>
      <point x="830" y="-194" type="curve" smooth="yes"/>
      <point x="981" y="-177"/>
      <point x="1105" y="259"/>
      <point x="1187" y="578" type="curve"/>
      <point x="1237" y="579"/>
      <point x="1279" y="581"/>
      <point x="1307" y="586" type="curve" smooth="yes"/>
      <point x="1335" y="591"/>
      <point x="1348" y="603"/>
      <point x="1348" y="624" type="curve" smooth="yes"/>
      <point x="1348" y="645"/>
      <point x="1339" y="661"/>
      <point x="1306" y="661" type="curve" smooth="yes"/>
      <point x="1270" y="661"/>
      <point x="1235" y="662"/>
      <point x="1200" y="664" type="curve"/>
      <point x="1195" y="672"/>
      <point x="1184" y="679"/>
      <point x="1166" y="679" type="curve" smooth="yes"/>
      <point x="1152" y="679"/>
      <point x="1142" y="677"/>
    </contour>
    <contour>
      <point x="597" y="625" type="curve" smooth="yes"/>
      <point x="617" y="631"/>
      <point x="635" y="634"/>
      <point x="652" y="634" type="curve" smooth="yes"/>
      <point x="716" y="634"/>
      <point x="755" y="594"/>
      <point x="755" y="549" type="curve" smooth="yes"/>
      <point x="755" y="487"/>
      <point x="683" y="414"/>
      <point x="504" y="414" type="curve" smooth="yes"/>
      <point x="483" y="414" type="line"/>
      <point x="490" y="549"/>
      <point x="523" y="603"/>
    </contour>
    <contour>
      <point x="167" y="46" type="curve" smooth="yes"/>
      <point x="170" y="46" type="line" smooth="yes"/>
      <point x="218" y="46"/>
      <point x="264" y="24"/>
      <point x="310" y="-2" type="curve"/>
      <point x="281" y="-27"/>
      <point x="241" y="-41"/>
      <point x="189" y="-41" type="curve" smooth="yes"/>
      <point x="149" y="-41"/>
      <point x="130" y="-15"/>
      <point x="130" y="9" type="curve" smooth="yes"/>
      <point x="130" y="28"/>
      <point x="143" y="46"/>
    </contour>
  </outline>
</glyph>
<glyph name="uni01C8" format="1">
  <advance width="843"/>
  <unicode hex="01C8"/>
  <outline>
    <contour>
      <point x="582" y="671" type="move" name="top"/>
    </contour>
    <contour>
      <point x="409" y="-154" type="move" name="bot"/>
    </contour>
    <contour>
      <point x="934" y="229" type="curve" smooth="yes"/>
      <point x="872" y="203"/>
      <point x="833" y="198"/>
      <point x="757" y="186" type="curve"/>
      <point x="781" y="241" type="line" smooth="yes"/>
      <point x="789" y="258"/>
      <point x="803" y="285"/>
      <point x="803" y="308" type="curve" smooth="yes"/>
      <point x="803" y="319"/>
      <point x="796" y="328"/>
      <point x="783" y="328" type="curve" smooth="yes"/>
      <point x="737" y="328"/>
      <point x="724" y="315"/>
      <point x="709" y="280" type="curve" smooth="yes"/>
      <point x="666" y="178"/>
      <point x="629" y="58"/>
      <point x="629" y="-79" type="curve" smooth="yes"/>
      <point x="629" y="-97"/>
      <point x="630" y="-115"/>
      <point x="632" y="-131" type="curve"/>
      <point x="563" y="-110"/>
      <point x="487" y="-50"/>
      <point x="409" y="5" type="curve"/>
      <point x="463" y="82"/>
      <point x="483" y="192"/>
      <point x="483" y="303" type="curve" smooth="yes"/>
      <point x="483" y="318"/>
      <point x="483" y="333"/>
      <point x="482" y="348" type="curve"/>
      <point x="485" y="348" type="line" smooth="yes"/>
      <point x="699" y="348"/>
      <point x="787" y="457"/>
      <point x="787" y="555" type="curve" smooth="yes"/>
      <point x="787" y="635"/>
      <point x="728" y="707"/>
      <point x="633" y="707" type="curve" smooth="yes"/>
      <point x="625" y="707"/>
      <point x="617" y="706"/>
      <point x="608" y="705" type="curve" smooth="yes"/>
      <point x="500" y="691"/>
      <point x="397" y="617"/>
      <point x="396" y="419" type="curve"/>
      <point x="362" y="424"/>
      <point x="325" y="431"/>
      <point x="285" y="442" type="curve" smooth="yes"/>
      <point x="282" y="443"/>
      <point x="279" y="443"/>
      <point x="276" y="443" type="curve" smooth="yes"/>
      <point x="256" y="443"/>
      <point x="244" y="424"/>
      <point x="244" y="406" type="curve" smooth="yes"/>
      <point x="244" y="394"/>
      <point x="249" y="383"/>
      <point x="262" y="380" type="curve" smooth="yes"/>
      <point x="310" y="368"/>
      <point x="355" y="359"/>
      <point x="396" y="354" type="curve"/>
      <point x="396" y="239"/>
      <point x="393" y="123"/>
      <point x="349" y="46" type="curve"/>
      <point x="287" y="87"/>
      <point x="225" y="118"/>
      <point x="165" y="118" type="curve" smooth="yes"/>
      <point x="92" y="118"/>
      <point x="54" y="66"/>
      <point x="54" y="13" type="curve" smooth="yes"/>
      <point x="54" y="-44"/>
      <point x="98" y="-104"/>
      <point x="189" y="-104" type="curve" smooth="yes"/>
      <point x="265" y="-104"/>
      <point x="323" y="-81"/>
      <point x="367" y="-43" type="curve"/>
      <point x="480" y="-117"/>
      <point x="602" y="-210"/>
      <point x="691" y="-210" type="curve" smooth="yes"/>
      <point x="701" y="-210"/>
      <point x="711" y="-209"/>
      <point x="720" y="-206" type="curve" smooth="yes"/>
      <point x="799" y="-191"/>
      <point x="830" y="-75"/>
      <point x="830" y="16" type="curve" smooth="yes"/>
      <point x="830" y="59"/>
      <point x="821" y="98"/>
      <point x="811" y="131" type="curve"/>
      <point x="872" y="132"/>
      <point x="954" y="146"/>
      <point x="954" y="211" type="curve" smooth="yes"/>
      <point x="954" y="223"/>
      <point x="950" y="231"/>
      <point x="942" y="231" type="curve" smooth="yes"/>
      <point x="940" y="231"/>
      <point x="937" y="231"/>
    </contour>
    <contour>
      <point x="483" y="412" type="line"/>
      <point x="490" y="550"/>
      <point x="522" y="608"/>
      <point x="597" y="625" type="curve" smooth="yes"/>
      <point x="607" y="627"/>
      <point x="618" y="628"/>
      <point x="627" y="628" type="curve" smooth="yes"/>
      <point x="681" y="628"/>
      <point x="712" y="592"/>
      <point x="712" y="549" type="curve" smooth="yes"/>
      <point x="712" y="487"/>
      <point x="646" y="412"/>
      <point x="485" y="412" type="curve" smooth="yes"/>
    </contour>
    <contour>
      <point x="916" y="450" type="curve" smooth="yes"/>
      <point x="916" y="481"/>
      <point x="895" y="495"/>
      <point x="866" y="495" type="curve" smooth="yes"/>
      <point x="831" y="495"/>
      <point x="804" y="475"/>
      <point x="804" y="441" type="curve" smooth="yes"/>
      <point x="804" y="410"/>
      <point x="824" y="394"/>
      <point x="858" y="394" type="curve" smooth="yes"/>
      <point x="893" y="394"/>
      <point x="916" y="415"/>
    </contour>
    <contour>
      <point x="765" y="12" type="curve" smooth="yes"/>
      <point x="765" y="-43"/>
      <point x="753" y="-131"/>
      <point x="720" y="-131" type="curve" smooth="yes"/>
      <point x="706" y="-131"/>
      <point x="703" y="-107"/>
      <point x="703" y="-85" type="curve" smooth="yes"/>
      <point x="703" y="-78"/>
      <point x="704" y="-71"/>
      <point x="704" y="-65" type="curve" smooth="yes"/>
      <point x="711" y="14"/>
      <point x="727" y="84"/>
      <point x="745" y="153" type="curve"/>
      <point x="754" y="108"/>
      <point x="765" y="63"/>
    </contour>
    <contour>
      <point x="307" y="-5" type="curve"/>
      <point x="278" y="-28"/>
      <point x="239" y="-41"/>
      <point x="189" y="-41" type="curve" smooth="yes"/>
      <point x="149" y="-41"/>
      <point x="130" y="-15"/>
      <point x="130" y="9" type="curve" smooth="yes"/>
      <point x="130" y="28"/>
      <point x="143" y="46"/>
      <point x="167" y="46" type="curve" smooth="yes"/>
      <point x="206" y="46"/>
      <point x="254" y="25"/>
    </contour>
  </outline>
</glyph>
<glyph name="hungarumlaut" format="1">
  <advance width="350"/>
  <unicode hex="02DD"/>
  <outline>
    <contour>
      <point x="116" y="339" type="move" name="_top"/>
    </contour>
    <contour>
      <point x="86" y="417" type="curve" smooth="yes"/>
      <point x="199" y="571" type="line" smooth="yes"/>
      <point x="207" y="582"/>
      <point x="211" y="593"/>
      <point x="211" y="603" type="curve" smooth="yes"/>
      <point x="211" y="627"/>
      <point x="191" y="644"/>
      <point x="170" y="644" type="curve" smooth="yes"/>
      <point x="156" y="644"/>
      <point x="141" y="636"/>
      <point x="131" y="616" type="curve" smooth="yes"/>
      <point x="48" y="441" type="line" smooth="yes"/>
      <point x="46" y="437"/>
      <point x="45" y="434"/>
      <point x="45" y="430" type="curve" smooth="yes"/>
      <point x="45" y="417"/>
      <point x="56" y="408"/>
      <point x="68" y="408" type="curve" smooth="yes"/>
      <point x="74" y="408"/>
      <point x="81" y="410"/>
    </contour>
    <contour>
      <point x="237" y="407" type="curve" smooth="yes"/>
      <point x="384" y="571" type="line" smooth="yes"/>
      <point x="394" y="582"/>
      <point x="398" y="594"/>
      <point x="398" y="604" type="curve" smooth="yes"/>
      <point x="398" y="626"/>
      <point x="380" y="642"/>
      <point x="358" y="642" type="curve" smooth="yes"/>
      <point x="344" y="642"/>
      <point x="328" y="634"/>
      <point x="316" y="616" type="curve" smooth="yes"/>
      <point x="199" y="431" type="line" smooth="yes"/>
      <point x="196" y="427"/>
      <point x="195" y="422"/>
      <point x="195" y="418" type="curve" smooth="yes"/>
      <point x="195" y="406"/>
      <point x="206" y="399"/>
      <point x="218" y="399" type="curve" smooth="yes"/>
      <point x="225" y="399"/>
      <point x="231" y="401"/>
    </contour>
  </outline>
</glyph>
<glyph name="bullet" format="1">
  <advance width="383"/>
  <unicode hex="2022"/>
  <outline>
    <contour>
      <point x="175" y="86" type="curve" smooth="yes"/>
      <point x="250" y="86"/>
      <point x="295" y="152"/>
      <point x="295" y="229" type="curve" smooth="yes"/>
      <point x="295" y="281"/>
      <point x="269" y="306"/>
      <point x="219" y="306" type="curve" smooth="yes"/>
      <point x="147" y="306"/>
      <point x="87" y="258"/>
      <point x="87" y="186" type="curve" smooth="yes"/>
      <point x="87" y="126"/>
      <point x="117" y="86"/>
    </contour>
  </outline>
</glyph>
<glyph name="guilsinglleft" format="1">
  <advance width="372"/>
  <unicode hex="2039"/>
  <outline>
    <contour>
      <point x="274" y="25" type="curve" smooth="yes"/>
      <point x="292" y="25"/>
      <point x="313" y="37"/>
      <point x="313" y="54" type="curve" smooth="yes"/>
      <point x="313" y="81"/>
      <point x="289" y="100"/>
      <point x="270" y="107" type="curve" smooth="yes"/>
      <point x="109" y="186" type="line"/>
      <point x="289" y="264" type="line" smooth="yes"/>
      <point x="307" y="272"/>
      <point x="323" y="285"/>
      <point x="323" y="306" type="curve" smooth="yes"/>
      <point x="323" y="327"/>
      <point x="306" y="341"/>
      <point x="285" y="341" type="curve" smooth="yes"/>
      <point x="278" y="341"/>
      <point x="272" y="340"/>
      <point x="267" y="338" type="curve" smooth="yes"/>
      <point x="96" y="266" type="line" smooth="yes"/>
      <point x="64" y="253"/>
      <point x="28" y="228"/>
      <point x="28" y="185" type="curve" smooth="yes"/>
      <point x="28" y="160"/>
      <point x="42" y="142"/>
      <point x="58" y="132" type="curve" smooth="yes"/>
      <point x="119" y="92"/>
      <point x="177" y="58"/>
      <point x="252" y="30" type="curve" smooth="yes"/>
      <point x="260" y="27"/>
      <point x="267" y="25"/>
    </contour>
  </outline>
</glyph>
<glyph name="Omega" format="1">
  <advance width="879"/>
  <unicode hex="2126"/>
  <outline>
    <contour>
      <point x="672" y="43" type="line"/>
      <point x="785" y="113"/>
      <point x="843" y="242"/>
      <point x="843" y="367" type="curve" smooth="yes"/>
      <point x="843" y="534"/>
      <point x="739" y="693"/>
      <point x="522" y="693" type="curve" smooth="yes"/>
      <point x="279" y="693"/>
      <point x="147" y="492"/>
      <point x="147" y="305" type="curve" smooth="yes"/>
      <point x="147" y="207"/>
      <point x="183" y="112"/>
      <point x="259" y="53" type="curve"/>
      <point x="229" y="54"/>
      <point x="206" y="54"/>
      <point x="186" y="54" type="curve" smooth="yes"/>
      <point x="163" y="54" type="line" smooth="yes"/>
      <point x="147" y="54"/>
      <point x="140" y="40"/>
      <point x="140" y="27" type="curve" smooth="yes"/>
      <point x="140" y="11"/>
      <point x="157" y="-12"/>
      <point x="180" y="-13" type="curve" smooth="yes"/>
      <point x="192" y="-13"/>
      <point x="204" y="-14"/>
      <point x="216" y="-14" type="curve" smooth="yes"/>
      <point x="267" y="-14"/>
      <point x="324" y="-11"/>
      <point x="440" y="-9" type="curve"/>
      <point x="437" y="46" type="line"/>
      <point x="288" y="60"/>
      <point x="221" y="172"/>
      <point x="221" y="293" type="curve" smooth="yes"/>
      <point x="221" y="449"/>
      <point x="332" y="621"/>
      <point x="520" y="621" type="curve" smooth="yes"/>
      <point x="685" y="621"/>
      <point x="768" y="488"/>
      <point x="768" y="350" type="curve" smooth="yes"/>
      <point x="768" y="209"/>
      <point x="682" y="63"/>
      <point x="507" y="46" type="curve"/>
      <point x="498" y="-8" type="line"/>
      <point x="574" y="-18"/>
      <point x="640" y="-24"/>
      <point x="694" y="-24" type="curve" smooth="yes"/>
      <point x="719" y="-24"/>
      <point x="742" y="-23"/>
      <point x="763" y="-20" type="curve" smooth="yes"/>
      <point x="787" y="-16"/>
      <point x="806" y="3"/>
      <point x="806" y="24" type="curve" smooth="yes"/>
      <point x="806" y="36"/>
      <point x="801" y="47"/>
      <point x="786" y="47" type="curve" smooth="yes"/>
      <point x="783" y="47" type="line" smooth="yes"/>
      <point x="759" y="45"/>
      <point x="731" y="43"/>
      <point x="696" y="43" type="curve" smooth="yes"/>
    </contour>
  </outline>
</glyph>
<glyph name="emptyset" format="1">
  <advance width="419"/>
  <unicode hex="2205"/>
  <outline>
    <contour>
      <point x="189" y="-102" type="curve" smooth="yes"/>
      <point x="242" y="51" type="line"/>
      <point x="359" y="51"/>
      <point x="427" y="186"/>
      <point x="427" y="296" type="curve" smooth="yes"/>
      <point x="427" y="356"/>
      <point x="407" y="409"/>
      <point x="363" y="427" type="curve"/>
      <point x="417" y="592" type="line" smooth="yes"/>
      <point x="419" y="596"/>
      <point x="419" y="600"/>
      <point x="419" y="604" type="curve" smooth="yes"/>
      <point x="419" y="616"/>
      <point x="411" y="624"/>
      <point x="402" y="624" type="curve" smooth="yes"/>
      <point x="393" y="624"/>
      <point x="383" y="617"/>
      <point x="378" y="601" type="curve" smooth="yes"/>
      <point x="322" y="433" type="line"/>
      <point x="220" y="428"/>
      <point x="132" y="301"/>
      <point x="132" y="184" type="curve" smooth="yes"/>
      <point x="132" y="125"/>
      <point x="155" y="78"/>
      <point x="199" y="60" type="curve"/>
      <point x="150" y="-91" type="line" smooth="yes"/>
      <point x="149" y="-93"/>
      <point x="149" y="-95"/>
      <point x="149" y="-97" type="curve" smooth="yes"/>
      <point x="149" y="-109"/>
      <point x="159" y="-116"/>
      <point x="170" y="-116" type="curve" smooth="yes"/>
      <point x="178" y="-116"/>
      <point x="186" y="-112"/>
    </contour>
    <contour>
      <point x="223" y="130" type="line"/>
      <point x="206" y="145"/>
      <point x="200" y="170"/>
      <point x="200" y="196" type="curve" smooth="yes"/>
      <point x="200" y="269"/>
      <point x="245" y="346"/>
      <point x="299" y="362" type="curve"/>
    </contour>
    <contour>
      <point x="263" y="120" type="curve"/>
      <point x="340" y="357" type="line"/>
      <point x="355" y="345"/>
      <point x="361" y="320"/>
      <point x="361" y="290" type="curve" smooth="yes"/>
      <point x="361" y="219"/>
      <point x="323" y="124"/>
    </contour>
  </outline>
</glyph>
<glyph name="radical" format="1">
  <advance width="863"/>
  <unicode hex="221A"/>
  <outline>
    <contour>
      <point x="131" y="262" type="curve" smooth="yes"/>
      <point x="131" y="243"/>
      <point x="142" y="226"/>
      <point x="159" y="226" type="curve" smooth="yes"/>
      <point x="162" y="226"/>
      <point x="166" y="226"/>
      <point x="170" y="228" type="curve" smooth="yes"/>
      <point x="198" y="242"/>
      <point x="221" y="252"/>
      <point x="252" y="262" type="curve"/>
      <point x="241" y="219"/>
      <point x="237" y="180"/>
      <point x="237" y="147" type="curve" smooth="yes"/>
      <point x="237" y="48"/>
      <point x="279" y="-3"/>
      <point x="336" y="-3" type="curve" smooth="yes"/>
      <point x="346" y="-3" type="line" smooth="yes"/>
      <point x="406" y="3"/>
      <point x="446" y="60"/>
      <point x="495" y="170" type="curve" smooth="yes"/>
      <point x="668" y="558" type="line" smooth="yes"/>
      <point x="670" y="563"/>
      <point x="671" y="568"/>
      <point x="671" y="573" type="curve" smooth="yes"/>
      <point x="671" y="593"/>
      <point x="655" y="608"/>
      <point x="637" y="608" type="curve" smooth="yes"/>
      <point x="623" y="608"/>
      <point x="607" y="599"/>
      <point x="597" y="576" type="curve" smooth="yes"/>
      <point x="429" y="181" type="line" smooth="yes"/>
      <point x="382" y="71"/>
      <point x="360" y="58"/>
      <point x="345" y="58" type="curve" smooth="yes"/>
      <point x="336" y="58"/>
      <point x="312" y="76"/>
      <point x="312" y="144" type="curve" smooth="yes"/>
      <point x="312" y="179"/>
      <point x="318" y="227"/>
      <point x="336" y="293" type="curve" smooth="yes"/>
      <point x="337" y="295"/>
      <point x="337" y="297"/>
      <point x="337" y="299" type="curve" smooth="yes"/>
      <point x="337" y="316"/>
      <point x="318" y="329"/>
      <point x="299" y="329" type="curve" smooth="yes"/>
      <point x="296" y="329"/>
      <point x="293" y="329"/>
      <point x="290" y="328" type="curve" smooth="yes"/>
      <point x="246" y="324"/>
      <point x="190" y="309"/>
      <point x="161" y="298" type="curve" smooth="yes"/>
      <point x="137" y="289"/>
      <point x="131" y="274"/>
    </contour>
  </outline>
</glyph>
